<svg width="121" height="130" viewBox="0 0 121 130" fill="none" xmlns="http://www.w3.org/2000/svg">
<circle cx="60.1893" cy="69.1893" r="55.4453" stroke="#DADADE" stroke-width="9.48796"/>
<path d="M91.3199 115.701C83.0179 120.812 72.3439 124.127 65.939 124.545C60.1875 124.921 48.0052 124.234 39.7372 120.812C31.4692 117.391 24.1385 112.122 18.3352 105.428C12.5318 98.734 8.41766 90.8028 6.32382 82.2724C4.22998 73.7419 4.21488 64.8504 6.27974 56.3133C8.34459 47.7761 12.4318 39.8316 18.2124 33.119C23.993 26.4064 31.3057 21.1131 39.562 17.6651C47.8184 14.217 56.6295 13.152 65.749 13.8594" stroke="url(#paint0_linear_971_7428)" stroke-width="9.48796" stroke-linecap="round"/>
<path d="M72.6623 12.9848C72.567 12.3573 72.3054 11.8444 72.1593 11.2365C71.8773 10.0642 70.5645 10.1189 69.9679 10.8408C69.2609 8.75456 68.572 6.66306 67.8196 4.59256C67.3965 3.42678 65.9786 3.41409 65.3595 4.11155C65.1031 3.71713 64.8383 3.32665 64.5528 2.94622C63.6142 1.69779 61.7387 2.42629 62.0291 4.00048C62.1143 4.46312 62.2153 4.92096 62.323 5.37703C62.1734 5.15665 62.0211 4.93757 61.8609 4.72243C61.1593 3.78272 59.1726 3.9196 59.3346 5.40021C59.3522 5.56332 59.3765 5.72467 59.3977 5.88647C58.6268 4.74517 57.7548 3.67384 56.723 2.71752C55.8113 1.87226 54.0974 2.69084 54.5307 3.98212C54.5784 4.12424 54.6256 4.26679 54.6733 4.40891C54.0864 3.34764 53.4871 2.29336 52.8499 1.25876C52.1456 0.114411 50.1337 0.857784 50.6068 2.19585C52.1323 6.50783 55.1732 10.9628 55.9159 15.6159C55.0069 14.4055 54.0806 13.21 53.022 12.1163C52.3314 11.4031 51.1456 11.9594 51.1222 12.896C51.1002 13.7863 51.0326 14.6639 50.9987 15.5385C50.4828 14.9525 49.9713 14.3635 49.5014 13.7404C48.8911 12.9292 47.4167 13.3665 47.7521 14.4711C47.8293 14.7264 48.3668 17.3357 48.8227 17.9846C48.738 18.2098 48.7009 18.4459 48.7199 18.7306C48.7508 19.1919 49.1536 19.5378 49.628 19.4158C49.6576 19.4079 49.688 19.4001 49.7176 19.3922C49.9625 19.3297 50.1655 19.1263 50.2299 18.8845C50.3156 18.5644 50.3451 18.219 50.3465 17.8643C50.6849 18.285 51.0159 18.7122 51.3244 19.1556C52.0242 20.1609 53.4518 19.5199 53.2528 18.3497C53.1014 17.4629 53.1094 16.5674 53.1623 15.671C53.781 16.455 54.3727 17.2605 54.9672 18.0642C54.4809 18.3353 54.1561 19.017 54.4147 19.6108C55.3727 21.8134 56.4062 23.9455 57.1189 26.2487C57.2689 26.7327 58.1162 26.6672 58.0482 26.1241C58.0143 25.8499 57.9728 25.5762 57.9286 25.3029C58.1881 25.7882 58.4458 26.2745 58.693 26.7651C59.3364 28.045 61.5547 27.1359 61.0362 25.7865C61.0194 25.7423 61.0049 25.6982 60.9881 25.6535C61.8001 25.978 62.9831 25.3374 62.9651 24.3601C62.9593 24.0501 62.9408 23.7427 62.917 23.4352C63.4412 23.2494 63.871 22.7894 63.8657 22.1558C63.8609 21.5296 63.8596 20.9187 63.7439 20.3253C64.5978 20.6376 65.7513 19.7901 65.5223 18.7218C65.3762 18.0393 65.2046 17.3641 65.0197 16.6916C65.506 17.591 66.0364 18.4669 66.6498 19.2999C67.434 20.3651 68.9326 19.9537 69.1157 18.8242C69.9903 19.662 71.6717 18.6834 71.3734 17.3807C71.2688 16.9233 71.1593 16.4677 71.0486 16.0116C71.2542 15.7978 71.3861 15.4939 71.3853 15.1003C71.3848 14.9731 71.3844 14.8458 71.3844 14.7181C72.1681 14.7072 72.7806 13.7631 72.6623 12.9848ZM62.7074 18.8701C62.6372 18.8574 62.5661 18.8465 62.4947 18.8451C61.9258 17.4223 61.3826 15.9897 60.865 14.548C61.4687 16.0129 62.0604 17.4721 62.7074 18.8701ZM59.3562 18.6484C59.3161 18.7599 59.2957 18.8801 59.2878 19.0039C59.0336 18.7118 58.7821 18.4166 58.5425 18.1118C58.486 18.0397 58.4264 17.9772 58.3651 17.9234C58.3788 17.5635 58.3774 17.2041 58.362 16.8472C58.6877 17.4507 59.0186 18.0515 59.3562 18.6484Z" fill="#FBE910"/>
<path d="M62.3854 9.57468C60.5015 8.17889 58.2457 9.17369 57.7819 10.8953C57.2007 11.7012 57.0025 12.8105 57.2369 13.9391C57.7209 16.2751 60.6048 17.3805 62.4697 15.7836C64.3659 14.1595 64.4281 11.0881 62.3854 9.57468ZM61.4803 15.3083C59.6428 16.4539 58.1737 14.7227 58.0731 12.933C58.1133 13.0069 58.1419 13.0803 58.1892 13.1547C58.4032 13.4949 58.8961 13.267 58.822 12.8901C58.6772 12.1572 58.5519 11.3697 58.8586 10.7435C59.1993 10.4178 59.6573 10.1689 60.2531 10.0483C60.3523 10.0286 60.3894 9.94418 60.3837 9.86154C61.2279 9.9057 62.1215 10.496 62.5372 11.1139C63.4506 12.4751 62.8015 14.4844 61.4803 15.3083Z" fill="#574082"/>
<path d="M69.3401 8.9579C73.3576 2.93004 63.6157 -2.64348 59.8714 4.00181C57.9968 1.13415 54.8805 -0.617575 51.7553 1.923C48.7603 4.35732 50.0731 8.2329 52.8108 10.1097C50.0435 10.9414 46.4289 13.2095 46.8826 16.4152C47.3865 19.972 51.6666 20.0966 54.4807 18.9645C53.3315 22.1326 55.1646 25.2355 58.7797 26.1236C63.084 27.1814 65.2918 23.876 65.8416 20.3179C73.1868 21.8226 76.977 8.79961 69.3401 8.9579ZM65.959 19.2142C65.9872 18.7337 65.9885 18.2561 65.9599 17.7918C65.9334 17.3715 65.2874 17.3637 65.2949 17.7918C65.3028 18.2238 65.2856 18.6615 65.2498 19.0979C65.1333 19.073 65.0177 19.052 64.9008 19.0214C64.3792 18.885 63.9988 19.6865 64.5226 19.9104C64.7247 19.9965 64.922 20.0612 65.1196 20.1259C64.5897 23.2044 62.8011 25.8691 59.0445 25.1739C55.4233 24.5035 54.1281 20.976 56.0547 18.0397C56.3151 17.6431 55.7816 17.0698 55.3765 17.3676C54.2596 18.1879 53.1546 18.5456 51.776 18.6641C49.2377 18.8823 46.5366 16.3938 48.5758 13.8607C49.8114 12.3249 51.893 11.9428 53.3258 10.6983C53.5226 10.5269 53.4458 10.2584 53.2676 10.1285C53.4057 9.98856 53.4383 9.72139 53.2301 9.56834C50.7456 7.73702 50.0983 4.83308 52.426 2.58679C55.1369 -0.0289987 58.1791 2.86752 59.4756 5.30402C59.6393 5.61187 60.2002 5.65253 60.3507 5.30402C63.3774 -1.68366 72.8501 3.79586 67.8305 9.21547C67.4611 9.61382 67.83 10.1713 68.3375 10.0795C72.0929 9.4013 73.3907 12.0355 72.2548 15.2451C71.2412 18.1097 68.7554 19.5234 65.959 19.2142Z" fill="#574082"/>
<defs>
<linearGradient id="paint0_linear_971_7428" x1="48.031" y1="13.6523" x2="118.005" y2="37.7614" gradientUnits="userSpaceOnUse">
<stop stop-color="#309DC3"/>
<stop offset="1" stop-color="#309DC3" stop-opacity="0"/>
</linearGradient>
</defs>
</svg>
